<?xml version="1.0" encoding="UTF-8"?>
<!DOCTYPE svg PUBLIC "-//W3C//DTD SVG 1.1//EN" "http://www.w3.org/Graphics/SVG/1.1/DTD/svg11.dtd">
<svg xmlns="http://www.w3.org/2000/svg" version="1.1" width="788px" height="598px" style="shape-rendering:geometricPrecision; text-rendering:geometricPrecision; image-rendering:optimizeQuality; fill-rule:evenodd; clip-rule:evenodd" xmlns:xlink="http://www.w3.org/1999/xlink">
<g><path style="opacity:1" fill="#d02751" d="M 444.5,162.5 C 449.449,161.959 454.116,162.792 458.5,165C 460.921,169.483 462.255,174.316 462.5,179.5C 461.399,194.984 455.732,208.484 445.5,220C 442.803,222.708 439.637,224.541 436,225.5C 416.779,220.613 404.446,208.613 399,189.5C 396.894,179.605 400.894,174.271 411,173.5C 417.859,174.013 424.025,176.346 429.5,180.5C 433.1,173.281 438.1,167.281 444.5,162.5 Z"/></g>
<g><path style="opacity:1" fill="#d02751" d="M 387.5,237.5 C 398.043,235.722 405.877,239.389 411,248.5C 414.411,267.371 411.744,285.371 403,302.5C 395.598,314.801 387.098,326.301 377.5,337C 368.974,344.89 359.308,346.557 348.5,342C 323.368,328.193 307.201,307.359 300,279.5C 297.292,260.545 305.458,251.378 324.5,252C 336.887,253.943 347.387,259.443 356,268.5C 363.102,254.564 373.602,244.231 387.5,237.5 Z"/></g>
<g><path style="opacity:1" fill="#d02851" d="M 438.5,243.5 C 448.033,241.851 455.2,245.184 460,253.5C 462.447,258.621 464.28,263.954 465.5,269.5C 474.107,265.745 483.107,264.578 492.5,266C 499.341,267.831 502.674,272.331 502.5,279.5C 502.421,283.238 501.254,286.572 499,289.5C 484.864,304.649 467.364,312.983 446.5,314.5C 438.338,314.678 432.838,311.012 430,303.5C 422.98,284.162 424.313,265.495 434,247.5C 435.992,246.672 437.492,245.339 438.5,243.5 Z"/></g>
<g><path style="opacity:1" fill="#d12751" d="M 300.5,343.5 C 313.855,345.094 324.355,351.428 332,362.5C 335.585,368.002 338.919,373.669 342,379.5C 356.449,366.463 373.283,360.629 392.5,362C 406.78,369.236 410.946,380.403 405,395.5C 397.628,412.878 386.461,427.378 371.5,439C 362.997,444.084 354.664,449.417 346.5,455C 337.602,460.635 327.935,462.969 317.5,462C 313.825,461.443 310.492,460.11 307.5,458C 290.026,440.88 280.192,420.047 278,395.5C 276.876,384.034 277.543,372.7 280,361.5C 283.054,350.933 289.887,344.933 300.5,343.5 Z"/></g>
<g><path style="opacity:1" fill="#ce2852" d="M 429.5,333.5 C 435.59,332.137 440.09,334.137 443,339.5C 444.136,342.096 444.969,344.763 445.5,347.5C 449.33,346.889 453.163,346.223 457,345.5C 467.141,347.115 469.808,352.449 465,361.5C 454.598,372.079 442.098,376.245 427.5,374C 421.057,363.811 419.891,352.977 424,341.5C 425.273,338.403 427.107,335.736 429.5,333.5 Z"/></g>
</svg>
